HIERARCHY
ROOT Hip
{
	OFFSET	0.0000	0.0000	0.0000
	CHANNELS 6 Xposition Yposition Zposition Xrotation Yrotation Zrotation
	JOINT LowerSpine
	{
		OFFSET	0.0000	10.3005	-5.5740
		CHANNELS 3 Xrotation Yrotation Zrotation
		JOINT MiddleSpine
		{
			OFFSET	0.0000	9.4000	0.4911
			CHANNELS 3 Xrotation Yrotation Zrotation
			JOINT Chest
			{
				OFFSET	0.0000	11.6313	-2.5890
				CHANNELS 3 Xrotation Yrotation Zrotation
				JOINT Neck
				{
					OFFSET	0.0000	26.2109	-0.5451
					CHANNELS 3 Xrotation Yrotation Zrotation
					JOINT Head
					{
						OFFSET	-0.0001	14.8016	4.0260
						CHANNELS 3 Xrotation Yrotation Zrotation
						End Site
						{
							OFFSET	0.0001	20.6815	0.6174
						}
					}
				}
				JOINT LClavicle
				{
					OFFSET	2.6462	25.2948	8.6662
					CHANNELS 3 Xrotation Yrotation Zrotation
					JOINT LShoulder
					{
						OFFSET	15.4595	3.6282	-5.8708
						CHANNELS 3 Xrotation Yrotation Zrotation
						JOINT LForearm
						{
							OFFSET	32.8390	-0.1164	-0.2846
							CHANNELS 3 Xrotation Yrotation Zrotation
							JOINT LHand
							{
								OFFSET	27.3947	0.0795	-0.1641
								CHANNELS 3 Xrotation Yrotation Zrotation
								JOINT LFinger1
								{
									OFFSET	10.6174	0.9286	2.9490
									CHANNELS 3 Xrotation Yrotation Zrotation
									JOINT LFinger11
									{
										OFFSET	3.9715	-0.9684	0.6998
										CHANNELS 3 Xrotation Yrotation Zrotation
										JOINT LFinger12
										{
											OFFSET	2.7112	-0.6613	0.4779
											CHANNELS 3 Xrotation Yrotation Zrotation
											End Site
											{
												OFFSET	1.9293	-0.5759	0.3129
											}
										}
									}
								}
								JOINT LFinger2
								{
									OFFSET	10.7758	1.0723	0.2567
									CHANNELS 3 Xrotation Yrotation Zrotation
									JOINT LFinger21
									{
										OFFSET	4.9105	0.0137	-0.0290
										CHANNELS 3 Xrotation Yrotation Zrotation
										JOINT LFinger22
										{
											OFFSET	2.7219	0.0084	-0.0166
											CHANNELS 3 Xrotation Yrotation Zrotation
											End Site
											{
												OFFSET	2.4447	-0.1726	0.0033
											}
										}
									}
								}
								JOINT LFinger3
								{
									OFFSET	10.2124	0.7156	-2.4161
									CHANNELS 3 Xrotation Yrotation Zrotation
									JOINT LFinger31
									{
										OFFSET	4.4557	-0.2256	-0.2790
										CHANNELS 3 Xrotation Yrotation Zrotation
										JOINT LFinger32
										{
											OFFSET	2.5391	-0.1278	-0.1595
											CHANNELS 3 Xrotation Yrotation Zrotation
											End Site
											{
												OFFSET	2.2450	-0.2760	-0.1061
											}
										}
									}
								}
								JOINT LFinger4
								{
									OFFSET	9.4767	-0.7201	-4.1725
									CHANNELS 3 Xrotation Yrotation Zrotation
									JOINT LFinger41
									{
										OFFSET	2.7407	-0.5715	-0.7566
										CHANNELS 3 Xrotation Yrotation Zrotation
										JOINT LFinger42
										{
											OFFSET	2.0098	-0.4185	-0.5552
											CHANNELS 3 Xrotation Yrotation Zrotation
											End Site
											{
												OFFSET	1.7838	-0.4901	-0.4093
											}
										}
									}
								}
								JOINT LFinger0
								{
									OFFSET	2.1964	-1.6624	1.6651
									CHANNELS 3 Xrotation Yrotation Zrotation
									JOINT LFinger01
									{
										OFFSET	4.0893	-1.3429	3.0830
										CHANNELS 3 Xrotation Yrotation Zrotation
										JOINT LFinger02
										{
											OFFSET	2.6927	-0.9636	1.9400
											CHANNELS 3 Xrotation Yrotation Zrotation
											End Site
											{
												OFFSET	1.9801	-0.6816	1.3559
											}
										}
									}
								}
							}
						}
					}
				}
				JOINT RClavicle
				{
					OFFSET	-2.6462	25.2948	8.6661
					CHANNELS 3 Xrotation Yrotation Zrotation
					JOINT RShoulder
					{
						OFFSET	-15.4622	3.6288	-5.8718
						CHANNELS 3 Xrotation Yrotation Zrotation
						JOINT RForearm
						{
							OFFSET	-32.8390	-0.1164	-0.2846
							CHANNELS 3 Xrotation Yrotation Zrotation
							JOINT RHand
							{
								OFFSET	-27.3947	0.0795	-0.1641
								CHANNELS 3 Xrotation Yrotation Zrotation
								JOINT RFinger1
								{
									OFFSET	-10.6175	0.9287	2.9490
									CHANNELS 3 Xrotation Yrotation Zrotation
									JOINT RFinger11
									{
										OFFSET	-3.9715	-0.9684	0.6998
										CHANNELS 3 Xrotation Yrotation Zrotation
										JOINT RFinger12
										{
											OFFSET	-2.7112	-0.6614	0.4779
											CHANNELS 3 Xrotation Yrotation Zrotation
											End Site
											{
												OFFSET	-1.9293	-0.5759	0.3129
											}
										}
									}
								}
								JOINT RFinger2
								{
									OFFSET	-10.7758	1.0724	0.2568
									CHANNELS 3 Xrotation Yrotation Zrotation
									JOINT RFinger21
									{
										OFFSET	-4.9105	0.0137	-0.0290
										CHANNELS 3 Xrotation Yrotation Zrotation
										JOINT RFinger22
										{
											OFFSET	-2.7219	0.0083	-0.0167
											CHANNELS 3 Xrotation Yrotation Zrotation
											End Site
											{
												OFFSET	-2.4447	-0.1726	0.0033
											}
										}
									}
								}
								JOINT RFinger3
								{
									OFFSET	-10.2124	0.7157	-2.4161
									CHANNELS 3 Xrotation Yrotation Zrotation
									JOINT RFinger31
									{
										OFFSET	-4.4557	-0.2256	-0.2790
										CHANNELS 3 Xrotation Yrotation Zrotation
										JOINT RFinger32
										{
											OFFSET	-2.5391	-0.1277	-0.1595
											CHANNELS 3 Xrotation Yrotation Zrotation
											End Site
											{
												OFFSET	-2.2450	-0.2760	-0.1061
											}
										}
									}
								}
								JOINT RFinger4
								{
									OFFSET	-9.4767	-0.7201	-4.1725
									CHANNELS 3 Xrotation Yrotation Zrotation
									JOINT RFinger41
									{
										OFFSET	-2.7407	-0.5715	-0.7566
										CHANNELS 3 Xrotation Yrotation Zrotation
										JOINT RFinger42
										{
											OFFSET	-2.0097	-0.4184	-0.5552
											CHANNELS 3 Xrotation Yrotation Zrotation
											End Site
											{
												OFFSET	-1.7838	-0.4901	-0.4092
											}
										}
									}
								}
								JOINT RFinger0
								{
									OFFSET	-2.1964	-1.6623	1.6649
									CHANNELS 3 Xrotation Yrotation Zrotation
									JOINT RFinger01
									{
										OFFSET	-4.0892	-1.3431	3.0832
										CHANNELS 3 Xrotation Yrotation Zrotation
										JOINT RFinger02
										{
											OFFSET	-2.6927	-0.9634	1.9400
											CHANNELS 3 Xrotation Yrotation Zrotation
											End Site
											{
												OFFSET	-1.9801	-0.6816	1.3559
											}
										}
									}
								}
							}
						}
					}
				}
			}
		}
	}
	JOINT RThigh
	{
		OFFSET	-11.0190	4.6561	-0.9082
		CHANNELS 3 Xrotation Yrotation Zrotation
		JOINT RShin
		{
			OFFSET	-0.8817	-47.9274	0.0000
			CHANNELS 3 Xrotation Yrotation Zrotation
			JOINT RFoot
			{
				OFFSET	0.0000	-47.0618	0.0000
				CHANNELS 3 Xrotation Yrotation Zrotation
				JOINT RToe
				{
					OFFSET	0.0000	-5.1725	10.8164
					CHANNELS 3 Xrotation Yrotation Zrotation
					End Site
					{
						OFFSET	0.0000	0.0000	7.2563
					}
				}
			}
		}
	}
	JOINT LThigh
	{
		OFFSET	11.0188	4.6564	-0.9083
		CHANNELS 3 Xrotation Yrotation Zrotation
		JOINT LShin
		{
			OFFSET	0.8818	-47.9278	0.0000
			CHANNELS 3 Xrotation Yrotation Zrotation
			JOINT LFoot
			{
				OFFSET	0.0000	-47.0618	0.0000
				CHANNELS 3 Xrotation Yrotation Zrotation
				JOINT LToe
				{
					OFFSET	0.0000	-5.1725	10.8164
					CHANNELS 3 Xrotation Yrotation Zrotation
					End Site
					{
						OFFSET	0.0000	0.0000	7.2563
					}
				}
			}
		}
	}
}
MOTION
Frames:	4
Frame Time: 0.0333333000
	1.4969	98.3620	-89.4885	0.962243	18.069860	-4.700910	0.000000	0.000000	0.000000	-0.615810	0.776411	-0.488293	-2.027973	2.608117	-1.595766	0.000000	0.000000	0.000000	-13.259700	-17.786860	-1.348197	0.000000	0.000000	-14.610550	22.440770	-48.254150	-46.264610	0.000000	-23.817810	0.000000	0.000000	0.000000	0.000000	0.000000	0.000000	0.000000	0.000000	0.000000	0.000000	0.000000	0.000000	0.000000	0.000000	0.000000	0.000000	0.000000	0.000000	0.000000	0.000000	0.000000	0.000000	0.000000	0.000000	0.000000	0.000000	0.000000	0.000000	0.000000	0.000000	0.000000	0.000000	0.000000	0.000000	0.000000	0.000000	0.000000	0.000000	0.000000	0.000000	0.000000	0.000000	0.000000	0.000000	0.000000	0.000000	0.000000	0.000000	0.000000	0.000000	0.000000	12.225090	149.235300	71.868480	-87.351860	0.000000	19.221470	0.000000	-101.319100	-10.903460	1.983066	0.000000	0.000000	0.000000	0.000000	0.000000	0.000000	0.000000	0.000000	0.000000	0.000000	0.000000	0.000000	0.000000	0.000000	0.000000	0.000000	0.000000	0.000000	0.000000	0.000000	0.000000	0.000000	0.000000	0.000000	0.000000	0.000000	0.000000	0.000000	0.000000	0.000000	0.000000	0.000000	0.000000	0.000000	0.000000	0.000000	0.000000	0.000000	0.000000	0.000000	0.000000	0.000000	0.000000	0.000000	0.000000	-6.763802	-1.680027	5.871205	13.564490	0.000001	0.000000	-1.264568	0.278216	0.136888	0.000000	0.000000	0.000000	-6.742930	-0.363114	9.886417	5.722447	0.000001	0.000000	-0.143702	0.129789	0.066803	0.000000	0.000000	0.000000
	1.6972	98.3678	-89.3788	0.931959	17.886240	-4.444026	0.000000	0.000000	0.000000	-0.500895	0.877910	-0.548676	-1.637788	2.944488	-1.800178	0.000000	0.000000	0.000000	-11.367550	-17.643080	0.464040	0.000000	0.000000	-14.664190	27.799510	-49.491390	-43.294580	0.000000	-22.553320	0.000000	0.000000	0.000000	0.000000	0.000000	0.000000	0.000000	0.000000	0.000000	0.000000	0.000000	0.000000	0.000000	0.000000	0.000000	0.000000	0.000000	0.000000	0.000000	0.000000	0.000000	0.000000	0.000000	0.000000	0.000000	0.000000	0.000000	0.000000	0.000000	0.000000	0.000000	0.000000	0.000000	0.000000	0.000000	0.000000	0.000000	0.000000	0.000000	0.000000	0.000000	0.000000	0.000000	0.000000	0.000000	0.000000	0.000000	0.000000	0.000000	0.000000	0.000000	12.465320	149.301800	68.427520	-86.104160	0.000000	22.084920	0.000000	-106.451800	-10.693820	2.105247	0.000000	0.000000	0.000000	0.000000	0.000000	0.000000	0.000000	0.000000	0.000000	0.000000	0.000000	0.000000	0.000000	0.000000	0.000000	0.000000	0.000000	0.000000	0.000000	0.000000	0.000000	0.000000	0.000000	0.000000	0.000000	0.000000	0.000000	0.000000	0.000000	0.000000	0.000000	0.000000	0.000000	0.000000	0.000000	0.000000	0.000000	0.000000	0.000000	0.000000	0.000000	0.000000	0.000000	0.000000	0.000000	-6.918642	-1.200937	5.605366	14.190970	0.000001	0.000000	-1.116869	0.157218	0.078205	0.000000	0.000000	0.000000	-6.359667	-0.402077	9.574900	5.303786	0.000001	0.000000	-0.088315	-0.834140	-0.394667	0.000000	0.000000	0.000000
	1.9546	98.3508	-89.2821	0.757512	17.066830	-4.140051	0.000000	0.000000	0.000000	-0.346685	1.062387	-0.561130	-1.116001	3.553999	-1.847699	0.000000	0.000000	0.000000	-11.990280	-17.577990	0.260865	0.000000	0.000000	-14.701110	32.569580	-49.622380	-40.861060	0.000000	-22.400810	0.000000	0.000000	0.000000	0.000000	0.000000	0.000000	0.000000	0.000000	0.000000	0.000000	0.000000	0.000000	0.000000	0.000000	0.000000	0.000000	0.000000	0.000000	0.000000	0.000000	0.000000	0.000000	0.000000	0.000000	0.000000	0.000000	0.000000	0.000000	0.000000	0.000000	0.000000	0.000000	0.000000	0.000000	0.000000	0.000000	0.000000	0.000000	0.000000	0.000000	0.000000	0.000000	0.000000	0.000000	0.000000	0.000000	0.000000	0.000000	0.000000	0.000000	0.000000	12.488900	148.072000	67.743600	-84.846930	0.000000	22.766410	0.000000	-112.274400	-10.625060	-0.942773	0.000000	0.000000	0.000000	0.000000	0.000000	0.000000	0.000000	0.000000	0.000000	0.000000	0.000000	0.000000	0.000000	0.000000	0.000000	0.000000	0.000000	0.000000	0.000000	0.000000	0.000000	0.000000	0.000000	0.000000	0.000000	0.000000	0.000000	0.000000	0.000000	0.000000	0.000000	0.000000	0.000000	0.000000	0.000000	0.000000	0.000000	0.000000	0.000000	0.000000	0.000000	0.000000	0.000000	0.000000	0.000000	-6.892574	-1.359502	5.346207	14.940490	0.000001	0.000000	-1.362192	-0.052773	-0.019498	0.000000	0.000000	0.000000	-5.908008	-0.337133	9.292425	5.301537	0.000001	0.000000	-0.533789	-1.832544	-0.889623	0.000000	0.000000	0.000000
	2.3256	98.3146	-89.3116	0.664205	15.819280	-3.823692	0.000000	0.000000	0.000000	-0.206762	1.318532	-0.507731	-0.644889	4.401853	-1.676272	0.000000	0.000000	0.000000	-10.400170	-18.466280	1.468314	0.000000	0.000000	-14.775780	34.241840	-48.669670	-41.059570	0.000000	-22.205170	0.000000	0.000000	0.000000	0.000000	0.000000	0.000000	0.000000	0.000000	0.000000	0.000000	0.000000	0.000000	0.000000	0.000000	0.000000	0.000000	0.000000	0.000000	0.000000	0.000000	0.000000	0.000000	0.000000	0.000000	0.000000	0.000000	0.000000	0.000000	0.000000	0.000000	0.000000	0.000000	0.000000	0.000000	0.000000	0.000000	0.000000	0.000000	0.000000	0.000000	0.000000	0.000000	0.000000	0.000000	0.000000	0.000000	0.000000	0.000000	0.000000	0.000000	0.000000	12.399320	145.298200	68.674940	-82.746190	0.000000	21.652570	0.000000	-114.350200	-2.994666	-7.354853	0.000000	0.000000	0.000000	0.000000	0.000000	0.000000	0.000000	0.000000	0.000000	0.000000	0.000000	0.000000	0.000000	0.000000	0.000000	0.000000	0.000000	0.000000	0.000000	0.000000	0.000000	0.000000	0.000000	0.000000	0.000000	0.000000	0.000000	0.000000	0.000000	0.000000	0.000000	0.000000	0.000000	0.000000	0.000000	0.000000	0.000000	0.000000	0.000000	0.000000	0.000000	0.000000	0.000000	0.000000	0.000000	-7.096082	-1.503719	4.969040	15.541960	0.000001	0.000000	-2.043242	0.018871	0.009712	0.000000	0.000000	0.000000	-5.688014	-0.244314	8.962120	5.640636	0.000001	0.000000	-1.167736	-2.193027	-1.079563	0.000000	0.000000	0.000000
